<svg xmlns="http://www.w3.org/2000/svg" xmlns:xlink="http://www.w3.org/1999/xlink" width="500" zoomAndPan="magnify" viewBox="0 0 375 374.999991" height="500" preserveAspectRatio="xMidYMid meet" version="1.0"><defs><clipPath id="9fb19f9e48"><path d="M 0 37.5 L 375 37.5 L 375 342.75 L 0 342.75 Z M 0 37.5 " clip-rule="nonzero"/></clipPath></defs><g clip-path="url(#9fb19f9e48)"><path fill="#980000" d="M 373.042969 133.773438 L 286.5625 38.453125 L 285.695312 37.5 L 89.171875 37.5 L 88.304688 38.453125 L 1.828125 133.773438 L 0.0546875 135.730469 L 1.828125 137.683594 L 185.234375 340.3125 L 187.394531 342.699219 L 189.550781 340.3125 L 373.046875 137.683594 L 374.816406 135.730469 L 373.042969 133.773438 " fill-opacity="1" fill-rule="nonzero"/></g><path fill="#de0017" d="M 96.285156 135.730469 L 187.140625 40.410156 L 90.464844 40.410156 Z M 96.285156 135.730469 " fill-opacity="1" fill-rule="nonzero"/><path fill="#980000" d="M 90.8125 40.738281 L 96.566406 134.957031 L 186.378906 40.738281 Z M 96.003906 136.5 L 90.117188 40.082031 L 187.910156 40.082031 L 187.382812 40.636719 L 96.003906 136.5 " fill-opacity="1" fill-rule="nonzero"/><path fill="#bd0000" d="M 278.582031 135.730469 L 187.726562 40.410156 L 284.40625 40.410156 Z M 278.582031 135.730469 " fill-opacity="1" fill-rule="nonzero"/><path fill="#980000" d="M 188.488281 40.738281 L 278.300781 134.957031 L 284.054688 40.738281 Z M 278.863281 136.5 L 278.347656 135.957031 L 186.957031 40.082031 L 284.757812 40.082031 L 284.734375 40.433594 L 278.863281 136.5 " fill-opacity="1" fill-rule="nonzero"/><path fill="#de0017" d="M 188.101562 336.984375 L 278.640625 135.816406 L 96.230469 135.816406 L 186.769531 336.984375 L 188.101562 336.984375 " fill-opacity="1" fill-rule="nonzero"/><path fill="#980000" d="M 186.976562 336.65625 L 187.890625 336.65625 L 278.136719 136.144531 L 96.738281 136.144531 Z M 188.316406 337.3125 L 186.558594 337.3125 L 95.722656 135.488281 L 279.148438 135.488281 L 278.941406 135.949219 L 188.316406 337.3125 " fill-opacity="1" fill-rule="nonzero"/><path fill="#c90000" d="M 370.109375 135.730469 L 278.640625 135.730469 L 188.058594 336.984375 L 188.726562 336.984375 L 370.109375 136.585938 L 370.109375 135.730469 " fill-opacity="1" fill-rule="nonzero"/><path fill="#980000" d="M 188.566406 336.65625 L 188.582031 336.65625 L 369.78125 136.457031 L 369.78125 136.058594 L 278.855469 136.058594 Z M 188.875 337.3125 L 187.550781 337.3125 L 187.761719 336.851562 L 278.429688 135.402344 L 370.4375 135.402344 L 370.4375 136.714844 L 370.355469 136.808594 L 188.875 337.3125 " fill-opacity="1" fill-rule="nonzero"/><path fill="#de0017" d="M 370.109375 134.875 L 284.578125 40.195312 L 284.40625 40.195312 L 278.640625 135.730469 L 370.109375 135.730469 L 370.109375 134.875 " fill-opacity="1" fill-rule="nonzero"/><path fill="#980000" d="M 278.988281 135.402344 L 369.78125 135.402344 L 369.78125 135.003906 L 284.695312 40.816406 Z M 370.4375 136.058594 L 278.296875 136.058594 L 278.3125 135.710938 L 284.097656 39.867188 L 284.726562 39.867188 L 284.824219 39.976562 L 370.4375 134.746094 L 370.4375 136.058594 " fill-opacity="1" fill-rule="nonzero"/><path fill="#ff4614" d="M 5.203125 135.730469 L 96.230469 135.730469 L 90.464844 40.351562 L 90.105469 40.351562 L 5.203125 134.378906 L 5.203125 135.730469 " fill-opacity="1" fill-rule="nonzero"/><path fill="#980000" d="M 5.53125 135.402344 L 95.878906 135.402344 L 90.160156 40.777344 L 5.53125 134.503906 Z M 96.578125 136.058594 L 4.875 136.058594 L 4.875 134.253906 L 4.960938 134.160156 L 89.957031 40.023438 L 90.769531 40.023438 L 96.578125 136.058594 " fill-opacity="1" fill-rule="nonzero"/><path fill="#f72717" d="M 96.230469 135.730469 L 5.203125 135.730469 L 5.203125 137.09375 L 186.144531 336.984375 L 186.808594 336.984375 L 96.230469 135.730469 " fill-opacity="1" fill-rule="nonzero"/><path fill="#980000" d="M 186.285156 336.65625 L 186.300781 336.65625 L 96.019531 136.058594 L 5.53125 136.058594 L 5.53125 136.964844 Z M 187.316406 337.3125 L 185.996094 337.3125 L 185.898438 337.207031 L 4.875 137.21875 L 4.875 135.402344 L 96.4375 135.402344 L 187.316406 337.3125 " fill-opacity="1" fill-rule="nonzero"/><path fill="#f72717" d="M 186.769531 40.925781 L 96.230469 136.121094 L 278.640625 136.121094 L 188.101562 40.925781 L 186.769531 40.925781 " fill-opacity="1" fill-rule="nonzero"/><path fill="#980000" d="M 96.992188 135.792969 L 277.875 135.792969 L 187.957031 41.253906 L 186.910156 41.253906 Z M 279.410156 136.449219 L 95.464844 136.449219 L 186.628906 40.597656 L 188.238281 40.597656 L 188.335938 40.699219 L 279.410156 136.449219 " fill-opacity="1" fill-rule="nonzero"/><path fill="#f9efef" d="M 94.421875 102.792969 C 94.328125 102.792969 94.234375 102.789062 94.132812 102.789062 C 92.703125 120.726562 78.085938 134.910156 59.972656 135.660156 C 59.972656 135.710938 59.960938 135.761719 59.960938 135.8125 C 78.882812 136.585938 94 152.011719 94.257812 171.066406 C 94.273438 171.066406 94.285156 171.066406 94.308594 171.066406 C 94.558594 152.175781 109.429688 136.851562 128.121094 135.839844 C 128.117188 135.765625 128.109375 135.699219 128.109375 135.636719 C 110.21875 134.652344 95.839844 120.582031 94.421875 102.792969 " fill-opacity="1" fill-rule="nonzero"/><path fill="#f9efef" d="M 150.488281 62.289062 C 150.433594 62.289062 150.382812 62.285156 150.320312 62.285156 C 149.5 72.671875 141.039062 80.875 130.570312 81.300781 C 130.558594 81.335938 130.558594 81.351562 130.558594 81.386719 C 141.507812 81.847656 150.242188 90.761719 150.398438 101.777344 C 150.40625 101.777344 150.40625 101.769531 150.421875 101.769531 C 150.566406 90.859375 159.167969 82 169.984375 81.398438 C 169.980469 81.367188 169.980469 81.324219 169.96875 81.289062 C 159.628906 80.71875 151.316406 72.578125 150.488281 62.289062 " fill-opacity="1" fill-rule="nonzero"/></svg>